<mxfile host="app.diagrams.net" modified="2021-08-29T17:48:49.588Z" agent="5.0 (Windows NT 10.0; Win64; x64) AppleWebKit/537.36 (KHTML, like Gecko) Chrome/92.0.4515.159 Safari/537.36" etag="Kzu6zEgl3RcjeAKWkuwJ" version="14.9.9" type="github" pages="2">
  <diagram name="SiteMap" id="2c0d36ab-eaac-3732-788b-9136903baeff">
    <mxGraphModel dx="3897" dy="1386" grid="1" gridSize="10" guides="1" tooltips="1" connect="1" arrows="1" fold="1" page="1" pageScale="1.5" pageWidth="1169" pageHeight="827" background="none" math="0" shadow="0">
      <root>
        <mxCell id="0" />
        <mxCell id="1" parent="0" />
        <mxCell id="123" value="" style="fillColor=#AE4132;strokeColor=none;opacity=30;" parent="1" vertex="1">
          <mxGeometry x="1611.5" y="200.00000000000003" width="210" height="99.99999999999994" as="geometry" />
        </mxCell>
        <mxCell id="122" value="" style="fillColor=#10739E;strokeColor=none;opacity=30;strokeWidth=4;" parent="1" vertex="1">
          <mxGeometry x="600" y="350" width="2233" height="100" as="geometry" />
        </mxCell>
        <mxCell id="109" value="" style="fillColor=#12AAB5;strokeColor=none;opacity=30;" parent="1" vertex="1">
          <mxGeometry x="910" y="470" width="693" height="80" as="geometry" />
        </mxCell>
        <mxCell id="fHDQy40MCfzK1CemCL61-127" style="edgeStyle=orthogonalEdgeStyle;rounded=0;orthogonalLoop=1;jettySize=auto;html=1;strokeWidth=2;" edge="1" parent="1" source="2" target="fHDQy40MCfzK1CemCL61-123">
          <mxGeometry relative="1" as="geometry">
            <Array as="points">
              <mxPoint x="1718" y="324.5" />
              <mxPoint x="2328" y="324.5" />
            </Array>
          </mxGeometry>
        </mxCell>
        <mxCell id="fHDQy40MCfzK1CemCL61-129" style="edgeStyle=orthogonalEdgeStyle;rounded=0;orthogonalLoop=1;jettySize=auto;html=1;strokeWidth=2;" edge="1" parent="1" source="2" target="fHDQy40MCfzK1CemCL61-128">
          <mxGeometry relative="1" as="geometry">
            <Array as="points">
              <mxPoint x="1718" y="324.5" />
              <mxPoint x="2718" y="324.5" />
            </Array>
          </mxGeometry>
        </mxCell>
        <UserObject label="Home Page" link="data:page/id,FyAa3obWp4VjDroWCxwQ" id="2">
          <mxCell style="rounded=1;fillColor=#23445D;gradientColor=none;strokeColor=none;fontColor=#FFFFFF;fontStyle=1;fontFamily=Tahoma;fontSize=14" parent="1" vertex="1">
            <mxGeometry x="1623" y="210" width="190" height="80" as="geometry" />
          </mxCell>
        </UserObject>
        <mxCell id="4" value="Team" style="rounded=1;fillColor=#23445D;gradientColor=none;strokeColor=none;fontColor=#FFFFFF;fontStyle=1;fontFamily=Tahoma;fontSize=14" parent="1" vertex="1">
          <mxGeometry x="1943" y="360" width="190" height="80" as="geometry" />
        </mxCell>
        <mxCell id="9" value="" style="edgeStyle=elbowEdgeStyle;elbow=vertical;strokeWidth=2;rounded=0" parent="1" source="2" target="4" edge="1">
          <mxGeometry x="840" y="240" width="100" height="100" as="geometry">
            <mxPoint x="840" y="340" as="sourcePoint" />
            <mxPoint x="940" y="240" as="targetPoint" />
          </mxGeometry>
        </mxCell>
        <mxCell id="10" value="Blog" style="rounded=1;fillColor=#23445D;gradientColor=none;strokeColor=none;fontColor=#FFFFFF;fontStyle=1;fontFamily=Tahoma;fontSize=14" parent="1" vertex="1">
          <mxGeometry x="1623" y="360" width="190" height="80" as="geometry" />
        </mxCell>
        <mxCell id="zlN6J-4Lxgz3HVDc8LNz-125" value="" style="edgeStyle=orthogonalEdgeStyle;rounded=0;orthogonalLoop=1;jettySize=auto;html=1;" edge="1" parent="1" source="12" target="29">
          <mxGeometry relative="1" as="geometry">
            <Array as="points">
              <mxPoint x="1248" y="454.5" />
              <mxPoint x="1160" y="454.5" />
            </Array>
          </mxGeometry>
        </mxCell>
        <mxCell id="zlN6J-4Lxgz3HVDc8LNz-126" style="edgeStyle=orthogonalEdgeStyle;rounded=0;orthogonalLoop=1;jettySize=auto;html=1;strokeWidth=2;" edge="1" parent="1" source="12" target="zlN6J-4Lxgz3HVDc8LNz-123">
          <mxGeometry relative="1" as="geometry">
            <Array as="points">
              <mxPoint x="1248" y="454.5" />
              <mxPoint x="1525" y="454.5" />
            </Array>
          </mxGeometry>
        </mxCell>
        <mxCell id="12" value="Services" style="rounded=1;fillColor=#23445D;gradientColor=none;strokeColor=none;fontColor=#FFFFFF;fontStyle=1;fontFamily=Tahoma;fontSize=14" parent="1" vertex="1">
          <mxGeometry x="1153" y="360" width="190" height="80" as="geometry" />
        </mxCell>
        <mxCell id="13" value="About Page" style="rounded=1;fillColor=#23445D;gradientColor=none;strokeColor=none;fontColor=#FFFFFF;fontStyle=1;fontFamily=Tahoma;fontSize=14" parent="1" vertex="1">
          <mxGeometry x="610" y="360" width="190" height="80" as="geometry" />
        </mxCell>
        <mxCell id="25" value="Consulting" style="rounded=1;fillColor=#23445D;gradientColor=none;strokeColor=none;fontColor=#FFFFFF;fontStyle=1;fontFamily=Tahoma;fontSize=14" parent="1" vertex="1">
          <mxGeometry x="920" y="480" width="130" height="60" as="geometry" />
        </mxCell>
        <mxCell id="29" value="Team &#xa;Augmentation" style="rounded=1;fillColor=#23445D;gradientColor=none;strokeColor=none;fontColor=#FFFFFF;fontStyle=1;fontFamily=Tahoma;fontSize=14" parent="1" vertex="1">
          <mxGeometry x="1095" y="480" width="130" height="60" as="geometry" />
        </mxCell>
        <mxCell id="33" value="SAAAS" style="rounded=1;fillColor=#23445D;gradientColor=none;strokeColor=none;fontColor=#FFFFFF;fontStyle=1;fontFamily=Tahoma;fontSize=14" parent="1" vertex="1">
          <mxGeometry x="1270" y="480" width="130" height="60" as="geometry" />
        </mxCell>
        <mxCell id="59" value="" style="edgeStyle=elbowEdgeStyle;elbow=vertical;strokeWidth=2;rounded=0" parent="1" source="2" target="12" edge="1">
          <mxGeometry x="850" y="250" width="100" height="100" as="geometry">
            <mxPoint x="1365" y="300" as="sourcePoint" />
            <mxPoint x="1970" y="370" as="targetPoint" />
          </mxGeometry>
        </mxCell>
        <mxCell id="61" value="" style="edgeStyle=elbowEdgeStyle;elbow=vertical;strokeWidth=2;rounded=0" parent="1" source="2" target="13" edge="1">
          <mxGeometry x="480" y="160" width="100" height="100" as="geometry">
            <mxPoint x="480" y="260" as="sourcePoint" />
            <mxPoint x="580" y="160" as="targetPoint" />
          </mxGeometry>
        </mxCell>
        <mxCell id="100" value="" style="edgeStyle=elbowEdgeStyle;elbow=vertical;strokeWidth=2;rounded=0;exitX=0.5;exitY=1;exitDx=0;exitDy=0;" parent="1" source="12" target="25" edge="1">
          <mxGeometry x="480" y="160" width="100" height="100" as="geometry">
            <mxPoint x="480" y="260" as="sourcePoint" />
            <mxPoint x="580" y="160" as="targetPoint" />
            <Array as="points">
              <mxPoint x="1160" y="454.5" />
            </Array>
          </mxGeometry>
        </mxCell>
        <mxCell id="101" value="" style="edgeStyle=elbowEdgeStyle;elbow=vertical;strokeWidth=2;rounded=0" parent="1" target="29" edge="1">
          <mxGeometry x="480" y="160" width="100" height="100" as="geometry">
            <mxPoint x="1160" y="454.5" as="sourcePoint" />
            <mxPoint x="580" y="160" as="targetPoint" />
            <Array as="points">
              <mxPoint x="1160" y="454.5" />
            </Array>
          </mxGeometry>
        </mxCell>
        <mxCell id="102" value="" style="edgeStyle=elbowEdgeStyle;elbow=vertical;strokeWidth=2;rounded=0;entryX=0.5;entryY=0;entryDx=0;entryDy=0;exitX=0.5;exitY=1;exitDx=0;exitDy=0;" parent="1" source="12" target="33" edge="1">
          <mxGeometry x="480" y="160" width="100" height="100" as="geometry">
            <mxPoint x="480" y="260" as="sourcePoint" />
            <mxPoint x="580" y="160" as="targetPoint" />
            <Array as="points">
              <mxPoint x="1253" y="454.5" />
            </Array>
          </mxGeometry>
        </mxCell>
        <mxCell id="103" value="" style="edgeStyle=elbowEdgeStyle;elbow=vertical;strokeWidth=2;rounded=0" parent="1" source="10" edge="1">
          <mxGeometry x="480" y="160" width="100" height="100" as="geometry">
            <mxPoint x="480" y="260" as="sourcePoint" />
            <mxPoint x="1718" y="480.5" as="targetPoint" />
          </mxGeometry>
        </mxCell>
        <mxCell id="fHDQy40MCfzK1CemCL61-123" value="Careers" style="rounded=1;fillColor=#23445D;gradientColor=none;strokeColor=none;fontColor=#FFFFFF;fontStyle=1;fontFamily=Tahoma;fontSize=14" vertex="1" parent="1">
          <mxGeometry x="2243" y="360" width="190" height="80" as="geometry" />
        </mxCell>
        <mxCell id="fHDQy40MCfzK1CemCL61-128" value="Contact" style="rounded=1;fillColor=#23445D;gradientColor=none;strokeColor=none;fontColor=#FFFFFF;fontStyle=1;fontFamily=Tahoma;fontSize=14" vertex="1" parent="1">
          <mxGeometry x="2623" y="360" width="190" height="80" as="geometry" />
        </mxCell>
        <mxCell id="zlN6J-4Lxgz3HVDc8LNz-123" value="Software &#xa;Development" style="rounded=1;fillColor=#23445D;gradientColor=none;strokeColor=none;fontColor=#FFFFFF;fontStyle=1;fontFamily=Tahoma;fontSize=14" vertex="1" parent="1">
          <mxGeometry x="1460" y="480" width="130" height="60" as="geometry" />
        </mxCell>
      </root>
    </mxGraphModel>
  </diagram>
  <diagram id="FyAa3obWp4VjDroWCxwQ" name="Home Page">
    <mxGraphModel dx="1364" dy="485" grid="1" gridSize="10" guides="1" tooltips="1" connect="1" arrows="1" fold="1" page="1" pageScale="1" pageWidth="850" pageHeight="1100" math="0" shadow="0">
      <root>
        <mxCell id="Dt5q_hPh3qWlwoB5qj7j-0" />
        <mxCell id="Dt5q_hPh3qWlwoB5qj7j-1" parent="Dt5q_hPh3qWlwoB5qj7j-0" />
        <mxCell id="Q16gHW9OWsS_0dodCNmy-0" value="Home Page" style="swimlane;startSize=20;horizontal=1;containerType=tree;" vertex="1" parent="Dt5q_hPh3qWlwoB5qj7j-1">
          <mxGeometry x="220" y="270" width="400" height="650" as="geometry" />
        </mxCell>
        <mxCell id="Q16gHW9OWsS_0dodCNmy-1" value="" style="edgeStyle=elbowEdgeStyle;elbow=vertical;startArrow=none;endArrow=none;rounded=0;" edge="1" parent="Q16gHW9OWsS_0dodCNmy-0" source="Q16gHW9OWsS_0dodCNmy-2" target="Q16gHW9OWsS_0dodCNmy-3">
          <mxGeometry relative="1" as="geometry" />
        </mxCell>
        <mxCell id="Q16gHW9OWsS_0dodCNmy-2" value="Hero Section &amp;amp; CTA" style="whiteSpace=wrap;html=1;treeFolding=1;treeMoving=1;newEdgeStyle={&quot;edgeStyle&quot;:&quot;elbowEdgeStyle&quot;,&quot;startArrow&quot;:&quot;none&quot;,&quot;endArrow&quot;:&quot;none&quot;};" vertex="1" parent="Q16gHW9OWsS_0dodCNmy-0">
          <mxGeometry x="140" y="60" width="120" height="40" as="geometry" />
        </mxCell>
        <mxCell id="Q16gHW9OWsS_0dodCNmy-3" value="Social Proof" style="whiteSpace=wrap;html=1;treeFolding=1;treeMoving=1;newEdgeStyle={&quot;edgeStyle&quot;:&quot;elbowEdgeStyle&quot;,&quot;startArrow&quot;:&quot;none&quot;,&quot;endArrow&quot;:&quot;none&quot;};" vertex="1" parent="Q16gHW9OWsS_0dodCNmy-0">
          <mxGeometry x="140" y="140" width="120" height="40" as="geometry" />
        </mxCell>
        <mxCell id="Q16gHW9OWsS_0dodCNmy-4" value="" style="edgeStyle=elbowEdgeStyle;elbow=vertical;startArrow=none;endArrow=none;rounded=0;" edge="1" target="Q16gHW9OWsS_0dodCNmy-5" source="Q16gHW9OWsS_0dodCNmy-3" parent="Q16gHW9OWsS_0dodCNmy-0">
          <mxGeometry relative="1" as="geometry">
            <mxPoint x="420" y="370" as="sourcePoint" />
          </mxGeometry>
        </mxCell>
        <mxCell id="Q16gHW9OWsS_0dodCNmy-5" value="What We Do" style="whiteSpace=wrap;html=1;treeFolding=1;treeMoving=1;newEdgeStyle={&quot;edgeStyle&quot;:&quot;elbowEdgeStyle&quot;,&quot;startArrow&quot;:&quot;none&quot;,&quot;endArrow&quot;:&quot;none&quot;};" vertex="1" parent="Q16gHW9OWsS_0dodCNmy-0">
          <mxGeometry x="140" y="220" width="120" height="40" as="geometry" />
        </mxCell>
      </root>
    </mxGraphModel>
  </diagram>
</mxfile>
